<svg width="1200" height="300" viewBox="0 0 1200 300" fill="none" xmlns="http://www.w3.org/2000/svg">
  <defs>
    <linearGradient id="background" x1="0" y1="0" x2="1200" y2="300" gradientUnits="userSpaceOnUse">
      <stop stop-color="#020618"/>
      <stop offset="1" stop-color="#050914"/>
    </linearGradient>
    <linearGradient id="panel" x1="70" y1="45" x2="1130" y2="255" gradientUnits="userSpaceOnUse">
      <stop stop-color="#0F172A" stop-opacity="0.9"/>
      <stop offset="1" stop-color="#070B17" stop-opacity="0.72"/>
    </linearGradient>
    <linearGradient id="accent" x1="91" y1="88" x2="157" y2="154" gradientUnits="userSpaceOnUse">
      <stop stop-color="#00DC82"/>
      <stop offset="1" stop-color="#00A155"/>
    </linearGradient>
    <radialGradient id="glow" cx="0" cy="0" r="1" gradientUnits="userSpaceOnUse" gradientTransform="translate(165 8) rotate(27) scale(470 310)">
      <stop stop-color="#00DC82" stop-opacity="0.22"/>
      <stop offset="1" stop-color="#00DC82" stop-opacity="0"/>
    </radialGradient>
    <pattern id="grid" width="52" height="52" patternUnits="userSpaceOnUse">
      <path d="M52 0H0V52" stroke="#94A3B8" stroke-opacity="0.07"/>
    </pattern>
  </defs>

  <rect width="1200" height="300" rx="16" fill="url(#background)"/>
  <rect width="1200" height="300" rx="16" fill="url(#glow)"/>
  <rect width="1200" height="300" rx="16" fill="url(#grid)"/>

  <rect x="52" y="40" width="1096" height="220" rx="18" fill="url(#panel)" stroke="#94A3B8" stroke-opacity="0.18"/>
  <line x1="53" y1="41" x2="1147" y2="41" stroke="#F8FAFC" stroke-opacity="0.08"/>

  <rect x="88" y="83" width="68" height="68" rx="13" fill="url(#accent)"/>
  <rect x="88.5" y="83.5" width="67" height="67" rx="12.5" stroke="#F8FAFC" stroke-opacity="0.22"/>
  <text x="122" y="126" text-anchor="middle" fill="#02120B" font-family="Inter, Segoe UI, sans-serif" font-size="25" font-weight="800">EG</text>

  <text x="184" y="112" fill="#F8FAFC" font-family="Inter, Segoe UI, sans-serif" font-size="42" font-weight="750">Eduardo Gomes</text>
  <text x="186" y="143" fill="#94A3B8" font-family="ui-monospace, SFMono-Regular, Consolas, monospace" font-size="15" letter-spacing="1.7">BACKEND ENGINEER · OPEN-SOURCE BUILDER</text>

  <rect x="184" y="174" width="306" height="35" rx="7" fill="#00DC82" fill-opacity="0.07" stroke="#00DC82" stroke-opacity="0.24"/>
  <circle cx="204" cy="191.5" r="4" fill="#00DC82"/>
  <text x="219" y="197" fill="#CBD5E1" font-family="ui-monospace, SFMono-Regular, Consolas, monospace" font-size="14">Go / PostgreSQL / TypeScript</text>

  <g transform="translate(805 73)">
    <rect width="295" height="154" rx="11" fill="#020618" fill-opacity="0.78" stroke="#94A3B8" stroke-opacity="0.16"/>
    <path d="M0 38H295" stroke="#94A3B8" stroke-opacity="0.13"/>
    <circle cx="20" cy="19" r="4" fill="#64748B"/>
    <circle cx="36" cy="19" r="4" fill="#94A3B8"/>
    <circle cx="52" cy="19" r="4" fill="#00DC82"/>
    <text x="272" y="24" text-anchor="end" fill="#64748B" font-family="ui-monospace, SFMono-Regular, Consolas, monospace" font-size="11">~/workspace</text>

    <text x="20" y="67" fill="#00DC82" font-family="ui-monospace, SFMono-Regular, Consolas, monospace" font-size="13">$</text>
    <text x="37" y="67" fill="#CBD5E1" font-family="ui-monospace, SFMono-Regular, Consolas, monospace" font-size="13">go build ./...</text>
    <text x="20" y="94" fill="#00DC82" font-family="ui-monospace, SFMono-Regular, Consolas, monospace" font-size="13">$</text>
    <text x="37" y="94" fill="#CBD5E1" font-family="ui-monospace, SFMono-Regular, Consolas, monospace" font-size="13">go test ./...</text>
    <text x="20" y="125" fill="#48E6A3" font-family="ui-monospace, SFMono-Regular, Consolas, monospace" font-size="13">✓ building useful software</text>
    <rect x="20" y="137" width="112" height="2" rx="1" fill="#00DC82" fill-opacity="0.68"/>
  </g>

  <path d="M52 221V242C52 251.941 60.0589 260 70 260H91" stroke="#00DC82" stroke-opacity="0.7" stroke-width="2"/>
  <path d="M1148 79V58C1148 48.0589 1139.94 40 1130 40H1109" stroke="#00DC82" stroke-opacity="0.7" stroke-width="2"/>
</svg>
